<svg width="28" height="28" fill="none" xmlns="http://www.w3.org/2000/svg"><path d="M23.956 4.086C21.362 1.438 17.776 0 14.114 0 6.332 0 .076 6.281.153 13.924c0 2.422.686 4.768 1.83 6.887L0 28l7.4-1.892c2.06 1.135 4.35 1.665 6.638 1.665C21.744 27.773 28 21.492 28 13.849c0-3.709-1.45-7.19-4.044-9.763zm-9.842 21.341c-2.06 0-4.12-.53-5.874-1.59l-.458-.226-4.425 1.135 1.144-4.314-.305-.454C.84 14.605 2.441 7.492 7.935 4.162 13.428.832 20.523 2.422 23.88 7.87c3.357 5.449 1.755 12.487-3.738 15.816-1.755 1.136-3.891 1.741-6.028 1.741zm6.714-8.4l-.839-.378s-1.22-.53-1.984-.909c-.076 0-.152-.075-.228-.075-.23 0-.382.076-.535.151 0 0-.076.076-1.144 1.287a.42.42 0 01-.381.227h-.077c-.076 0-.229-.076-.305-.152l-.381-.151c-.84-.378-1.603-.832-2.213-1.438-.152-.151-.381-.303-.534-.454-.534-.53-1.068-1.135-1.45-1.816l-.076-.151c-.076-.076-.076-.152-.152-.303 0-.152 0-.303.076-.379 0 0 .305-.378.534-.605.153-.151.229-.378.381-.53.153-.227.23-.53.153-.756-.076-.379-.992-2.422-1.22-2.876-.153-.227-.306-.303-.535-.378H9.08c-.153 0-.305.075-.458.075l-.076.076c-.153.076-.305.227-.458.303-.152.15-.229.302-.381.454-.534.68-.84 1.513-.84 2.346 0 .605.153 1.21.382 1.74l.076.227a12.612 12.612 0 002.823 3.86l.305.302c.23.227.458.379.61.606 1.603 1.362 3.434 2.346 5.494 2.875.229.076.534.076.763.152h.763c.381 0 .839-.152 1.144-.303.229-.151.382-.151.534-.303l.153-.151c.152-.151.305-.227.458-.378.152-.152.305-.303.381-.454.153-.303.229-.681.305-1.06v-.53s-.076-.075-.229-.151z" fill="#222"/></svg>