<svg width="107" height="50" fill="none" xmlns="http://www.w3.org/2000/svg"><path d="M27.439 49.998H2.414c-.478 0-.956.007-1.434-.005-.821-.019-.953-.166-.974-1.07C-.003 48.54 0 48.16 0 47.778V2.237c0-.57.032-1.14.057-1.709a.624.624 0 01.15-.32.458.458 0 01.28-.152C1.018.03 1.548.002 2.079.002h51.01c1.95 0 1.853-.155 1.853 2.124V47.86c0 .507-.017 1.015-.038 1.521a.684.684 0 01-.166.417.482.482 0 01-.36.169c-.53.021-1.062.033-1.592.033l-25.347-.002zm0-2.757h23.118c.53 0 1.061-.026 1.591-.05a.463.463 0 00.28-.154.63.63 0 00.15-.323c.023-.57.052-1.14.052-1.71.002-13.34.002-26.682 0-40.024 0-.445 0-.89-.01-1.334-.016-.503-.127-.846-.648-.868a22.013 22.013 0 00-.956-.017H3.979c-.372 0-.743.01-1.115.03a.512.512 0 00-.357.178.716.716 0 00-.172.413 41.73 41.73 0 00-.03 1.523v40.216c0 2.277-.096 2.124 1.853 2.124l23.28-.004z" fill="#7DC4FF"/><path d="M61.356 24.476V11.33c0-.572-.005-1.144-.026-1.714 0-.191-.046-.378-.132-.54a.93.93 0 00-.35-.375c-.185-.117-.435-.246-.5-.443a3.075 3.075 0 01-.189-1.104c.005-.38.079-.754.216-1.097a.421.421 0 01.241-.21c.154-.048.313-.07.471-.07a1273.1 1273.1 0 015.738 0c.211.002.422.033.627.093a.536.536 0 01.278.178.71.71 0 01.153.33c.051.309.077.624.077.939.008 1.714 0 3.429.012 5.144.015.178.055.35.118.512a.173.173 0 00.056.067c.023.017.05.025.076.025.1-.02.194-.068.276-.138.446-.45.94-.83 1.468-1.127a3.831 3.831 0 012.634-.482c.898.163 1.734.65 2.395 1.395 1.085 1.232 1.845 2.817 2.187 4.559.376 1.785.607 3.61.69 5.447.146 3.172.155 6.35.027 9.522a35.315 35.315 0 01-.659 5.454c-.279 1.493-.858 2.882-1.687 4.046a5.544 5.544 0 01-1.603 1.544 3.5 3.5 0 01-3.39.248 8.57 8.57 0 01-2.17-1.56c-.126-.113-.355-.046-.378.107-.028.185-.037.378-.067.563a1.39 1.39 0 01-.096.354.767.767 0 01-.191.297.599.599 0 01-.286.154 3.12 3.12 0 01-.475.043H61c-.106 0-.212-.014-.317-.023a.442.442 0 01-.283-.15.607.607 0 01-.146-.326c-.03-.44-.055-.882-.061-1.324-.012-.19.022-.382.096-.55a.97.97 0 01.326-.408c.133-.103.26-.22.377-.347.102-.103.184-.23.242-.373.058-.143.09-.3.093-.458.018-.57.028-1.142.028-1.714.003-4.449.003-8.896.001-13.342zm6.608 3.149v9.32c-.005.444.01.887.043 1.328.024.186.093.36.2.498.128.182.291.325.475.417a1.067 1.067 0 001.143-.11c.17-.127.31-.3.412-.505a4.73 4.73 0 00.342-1.051c.124-.747.168-1.51.131-2.27V19.653c0-.38.021-.764-.01-1.14a16.188 16.188 0 00-.205-1.69 1.365 1.365 0 00-.516-.811.986.986 0 00-.842-.16c-.173.01-.343.06-.498.153a1.3 1.3 0 00-.403.38c-.11.16-.192.346-.239.545-.046.2-.058.408-.032.613-.005.254 0 .508 0 .761l-.001 9.32zM87.13 32.607c0 1.397.007 2.794 0 4.19-.005.7.105 1.394.322 2.043.569 1.73 1.853 2.05 3.132 1.288.379-.236.702-.582.94-1.006a5.558 5.558 0 00.72-1.891c.161-.737.255-1.493.279-2.255.002-.38.021-.761.057-1.14a.904.904 0 01.204-.503.653.653 0 01.424-.235c.312-.076.63-.117.948-.123 1.57.076 1.72.236 1.679 2.134-.044 2.18-.731 4.27-1.94 5.9-.783 1.135-1.815 1.985-2.98 2.454a5.56 5.56 0 01-3.615.2c-1.47-.338-2.82-1.202-3.87-2.478-1.481-1.75-2.51-3.974-2.96-6.405a33.304 33.304 0 01-.65-5.837 42.403 42.403 0 01.328-6.648c.209-1.76.629-3.475 1.247-5.092.549-1.45 1.34-2.75 2.326-3.82.868-.945 1.924-1.612 3.066-1.938a5.86 5.86 0 013.47.074c.984.303 1.877.931 2.576 1.813a11.186 11.186 0 011.975 3.647c.453 1.357.75 2.78.883 4.232a40.4 40.4 0 01.143 5.324.632.632 0 01-.031.231.552.552 0 01-.11.194.443.443 0 01-.169.118.38.38 0 01-.195.022c-.371.01-.743.01-1.115.01h-5.258c-.425 0-.85 0-1.274.008-.386.008-.54.213-.545.72-.006 1.587 0 3.174 0 4.762l-.007.007zm2.51-12.682h.01V16.5a3.437 3.437 0 00-.279-1.467 1.134 1.134 0 00-.38-.473.879.879 0 00-.532-.162.937.937 0 00-.618.126c-.19.113-.35.29-.457.51-.198.452-.287.96-.257 1.469v6.853c0 .064.007.127.01.19a.546.546 0 00.103.337c.07.092.166.15.269.16.583.003 1.166.002 1.75-.005a.39.39 0 00.271-.158.55.55 0 00.108-.338c.004-1.204.003-2.41.003-3.616zM105.297 23.129v14.659c0 .318.013.636 0 .952a2.23 2.23 0 00.098 1.118c.127.352.342.65.614.851a.634.634 0 01.159.208c.04.081.065.173.073.267.021.566 0 1.135-.015 1.703-.006.189-.265.476-.428.511a2.37 2.37 0 01-.469.084c-2.336.005-4.672.005-7.008 0a.566.566 0 01-.309-.055c-.129-.087-.304-.204-.336-.347a5.48 5.48 0 01-.008-2.256c.038-.153.103-.295.19-.415a.972.972 0 01.317-.284c.166-.1.305-.257.397-.45.093-.192.137-.414.125-.636 0-.444.01-.888.01-1.332V11.624c0-.507 0-1.015-.019-1.522a1.237 1.237 0 00-.1-.55 1.009 1.009 0 00-.323-.411 1.249 1.249 0 01-.365-.36 1.68 1.68 0 01-.27-.662 14.009 14.009 0 01-.03-1.517.943.943 0 01.177-.514.691.691 0 01.406-.273c.158-.024.317-.038.476-.042h5.733c.158.01.315.036.47.074a.572.572 0 01.263.198.734.734 0 01.137.332c.017.185.038.378.04.566.005.508 0 1.016 0 1.524-.003 4.889-.005 9.776-.005 14.662zM12.161 32.633c0 1.397.006 2.793 0 4.19-.049 1.088.248 2.158.831 2.996.153.22.346.397.564.515.219.119.456.177.696.17.453.026.904-.089 1.309-.334.404-.246.748-.614.997-1.067a5.25 5.25 0 00.71-1.893c.115-.747.194-1.503.274-2.256.04-.377.042-.759.073-1.138a.802.802 0 01.146-.433.591.591 0 01.337-.235 5.885 5.885 0 011.418-.145c1.171.113 1.336.24 1.345 1.754.022 2.31-.676 4.549-1.957 6.279-.767 1.108-1.774 1.944-2.91 2.415-1.137.47-2.36.559-3.537.255-1.477-.3-2.84-1.14-3.903-2.4-1.274-1.45-2.222-3.26-2.754-5.264A28.504 28.504 0 014.87 29.5c-.111-2.41-.009-4.828.304-7.214a22.418 22.418 0 011.253-5.088c.55-1.45 1.344-2.748 2.332-3.814.871-.942 1.928-1.606 3.071-1.929a5.867 5.867 0 013.468.082c.93.29 1.78.875 2.456 1.693a10.686 10.686 0 012.028 3.605c.528 1.527.854 3.143.964 4.79.106 1.578.096 3.169.121 4.755.01.583-.145.739-.69.739-1.912.005-3.824-.024-5.735.02-.723.016-1.473-.24-2.17.203a10.563 10.563 0 00-.104 2.441c-.02.953-.004 1.904-.004 2.857l-.002-.006zm0-13.055v3.615c-.008.189.005.378.038.563.024.104.131.254.206.259a34.54 34.54 0 001.747.047.4.4 0 00.192-.028.462.462 0 00.167-.118.572.572 0 00.112-.188.658.658 0 00.04-.227c.005-.19.01-.38.011-.57v-6.278a4.117 4.117 0 00-.22-1.484 1.202 1.202 0 00-.332-.523.915.915 0 00-.513-.237.96.96 0 00-.477-.008 1.056 1.056 0 00-.44.226 1.306 1.306 0 00-.322.42c-.082.166-.133.351-.15.542-.052.311-.072.628-.063.944-.002 1.016.003 2.03.003 3.044l.001.001zM28.946 34.904c-.102.063-.235.092-.282.184a30.23 30.23 0 00-1.785 4.229.99.99 0 00-.04.65c.029.107.077.205.139.289a.728.728 0 00.223.2c.162.112.296.275.386.472.09.197.133.42.124.644.006.442-.008.885-.041 1.325a.768.768 0 01-.196.399.562.562 0 01-.356.178c-1.327 0-2.655-.005-3.982-.015a.418.418 0 01-.286-.135.58.58 0 01-.15-.32 67.421 67.421 0 01-.032-1.52 1.059 1.059 0 01.07-.462.88.88 0 01.255-.358c.644-.564 1.137-1.34 1.42-2.233.96-2.471 1.957-4.922 2.951-7.374a2.455 2.455 0 00.089-1.65c-.789-2.826-1.571-5.653-2.347-8.482-.399-1.443-.798-2.887-1.188-4.333-.163-.807-.539-1.53-1.072-2.063a1.388 1.388 0 01-.335-.527 1.629 1.629 0 01-.092-.654c0-.19-.006-.38-.007-.571 0-.995.182-1.238 1.026-1.242 2.23-.01 4.462 0 6.693 0 .16-.005.318.018.471.07a.42.42 0 01.213.121c.06.063.106.143.132.233a4.488 4.488 0 010 1.878 1.59 1.59 0 01-.354.612c-.15.183-.252.415-.293.666-.041.252-.02.512.061.75.35 1.262.714 2.52 1.09 3.772.051.166.198.29.326.468.567-1.393 1.126-2.753 1.672-4.12.076-.237.136-.481.178-.73a.72.72 0 00.017-.375.628.628 0 00-.17-.315 1.852 1.852 0 01-.528-.813 2.198 2.198 0 01-.083-1.024c.012-.19.012-.38.023-.571a.735.735 0 01.183-.409.53.53 0 01.358-.176c1.274-.016 2.547-.022 3.821-.02a.606.606 0 01.355.187c.1.104.17.241.203.394.11.559.111 1.14.006 1.699a1.07 1.07 0 01-.326.617c-.41.298-.733.74-.927 1.265a6043.017 6043.017 0 01-3.475 8.553 1.334 1.334 0 00-.058.908c1.25 4.51 2.495 9.02 3.736 13.534a3.84 3.84 0 00.785 1.63c.158.168.284.377.366.611.083.234.12.487.11.74-.012 1.755.11 1.816-1.459 1.804-1.912-.015-3.825 0-5.737-.007-.317 0-.634-.037-.95-.07a.559.559 0 01-.275-.178.733.733 0 01-.158-.322 25.543 25.543 0 01-.006-1.702c.036-.182.11-.351.214-.491a.772.772 0 01.226-.263c.55-.36.498-.863.31-1.463-.341-1.064-.64-2.148-.96-3.222-.086-.293-.185-.584-.282-.872zM40.577 27.434v-11.23a7.282 7.282 0 00-.035-.949.402.402 0 00-.099-.247.283.283 0 00-.215-.098 2.048 2.048 0 01-.471-.064.457.457 0 01-.276-.165.624.624 0 01-.135-.332c-.017-.38-.034-.76-.034-1.139 0-1.33-.033-1.276 1.062-1.687.966-.354 1.841-.994 2.546-1.859.706-.865 1.217-1.929 1.488-3.092.054-.243.122-.482.204-.713a.671.671 0 01.187-.303.507.507 0 01.294-.133c.53-.016 1.06 0 1.588.008.101.04.193.106.268.195a.85.85 0 01.166.318c.044.31.072.624.082.939.012 1.396.006 2.791.024 4.187a.422.422 0 00.063.266c.05.075.12.125.2.138.154.022.315.037.473.054.159.017.319.018.475.048a.766.766 0 01.41.271c.11.138.183.313.208.5.021.569.03 1.14.011 1.708a.964.964 0 01-.235.58.682.682 0 01-.502.237c-.264.024-.53.027-.794.044a.412.412 0 00-.194.134.538.538 0 00-.108.235c-.013.38-.028.76-.028 1.14v21.509c0 .19.013.382 0 .57-.067.441-.011.896.158 1.296.17.4.443.723.78.92.212.137.387.342.505.593.118.25.175.536.163.823.002.316-.01.631-.036.945-.015.229-.177.308-.324.356a1.524 1.524 0 01-.472.055c-1.805 0-3.61-.008-5.414.009-.21.008-.42-.05-.605-.17a1.32 1.32 0 01-.453-.51 7.178 7.178 0 01-.903-3.201c-.036-.505-.02-1.016-.02-1.522-.002-3.557-.003-7.111-.002-10.664z" fill="#3C3C3C"/></svg>