<svg width="30" height="28" fill="none" xmlns="http://www.w3.org/2000/svg"><path d="M9.801 14c0-2.577 2.193-4.667 4.9-4.667 2.706 0 4.9 2.09 4.9 4.667s-2.194 4.667-4.9 4.667c-2.707 0-4.9-2.09-4.9-4.667zm-2.649 0c0 3.97 3.38 7.189 7.549 7.189 4.169 0 7.548-3.219 7.548-7.189s-3.38-7.189-7.548-7.189c-4.17 0-7.549 3.219-7.549 7.189zm13.632-7.474c0 .332.103.657.297.934.194.276.469.491.791.619.323.127.677.16 1.02.096.342-.065.656-.225.903-.46.247-.235.415-.534.483-.86a1.606 1.606 0 00-.1-.97 1.7 1.7 0 00-.65-.755 1.828 1.828 0 00-.98-.283 1.81 1.81 0 00-1.247.492c-.33.315-.517.742-.517 1.187zM8.762 25.396c-1.434-.063-2.213-.29-2.73-.482a4.599 4.599 0 01-1.691-1.047 4.305 4.305 0 01-1.1-1.61c-.202-.492-.44-1.234-.506-2.6-.07-1.475-.085-1.918-.085-5.657s.015-4.18.085-5.658c.066-1.365.306-2.105.506-2.6a4.337 4.337 0 011.1-1.61 4.559 4.559 0 011.69-1.047c.518-.192 1.297-.42 2.73-.482 1.55-.067 2.016-.081 5.94-.081 3.924 0 4.39.015 5.94.081 1.434.063 2.211.292 2.73.482a4.583 4.583 0 011.691 1.047c.515.49.833.957 1.1 1.61.202.493.44 1.235.506 2.6.07 1.477.085 1.92.085 5.658 0 3.739-.014 4.18-.085 5.658-.066 1.365-.306 2.107-.506 2.6a4.325 4.325 0 01-1.1 1.609 4.598 4.598 0 01-1.69 1.047c-.518.192-1.297.42-2.73.482-1.55.067-2.016.081-5.941.081-3.926 0-4.39-.014-5.94-.081zM8.64.085c-1.565.068-2.635.304-3.568.65A7.257 7.257 0 002.467 2.35 6.816 6.816 0 00.772 4.83C.408 5.72.16 6.738.089 8.228.017 9.721 0 10.198 0 14c0 3.802.017 4.28.089 5.772.071 1.49.32 2.508.683 3.398a6.82 6.82 0 001.695 2.48 7.275 7.275 0 002.605 1.615c.935.346 2.003.582 3.568.65 1.568.068 2.068.085 6.06.085 3.993 0 4.494-.016 6.061-.085 1.565-.068 2.634-.304 3.569-.65a7.275 7.275 0 002.604-1.615 6.833 6.833 0 001.695-2.48c.364-.89.613-1.908.683-3.398.071-1.494.088-1.97.088-5.772 0-3.802-.017-4.28-.088-5.772-.071-1.49-.32-2.509-.683-3.398a6.86 6.86 0 00-1.695-2.48A7.24 7.24 0 0024.33.735c-.936-.346-2.005-.583-3.569-.65C19.195.017 18.694 0 14.703 0 10.71 0 10.208.016 8.64.085z" fill="#222"/></svg>