<svg width="28" height="28" fill="none" xmlns="http://www.w3.org/2000/svg"><path d="M2.51 14.015C.893 14.502.041 15.985.041 17.47c0 4.053 5.25 4.914 6.873 1.576v5.32c0 4.38 6.031 4.756 7.09 1.139 1.113 3.703 7.086 3.175 7.086-1.141a3.625 3.625 0 00-2.06-3.26h5.337c4.403 0 4.764-6.091 1.09-7.11 3.823-1.24 3.186-7.073-1.116-7.073-1.416 0-2.658.734-3.251 1.964v-5.25c0-4.382-6.028-4.757-7.09-1.142C12.88-1.255 6.912-.684 6.912 3.634c0 1.454.864 2.702 2.1 3.282H3.636c-4.387 0-4.76 6.05-1.127 7.1zm3.03 3.455c0 2.412-3.748 2.612-3.748 0 0-1.048.663-1.886 1.865-1.886H5.54v1.886zm1.75-1.663c-.054-.977.122-1.253-.194-1.62h2.006c-.766.293-1.424.833-1.813 1.62zm5.138 8.559c0 2.488-3.764 2.492-3.764 0V17.47c0-2.482 3.764-2.483 3.764 0v6.896zm1.75-3.442v-1.897c.308.72.837 1.336 1.598 1.706-.934.05-1.228-.125-1.598.191zm1.398 3.442v-1.884c.509.114 3.765-.635 3.765 1.882-.001 2.485-3.764 2.476-3.765.002zm8.792-5.012h-6.91c-2.484 0-2.484-3.77 0-3.77h6.91c2.49 0 2.494 3.77 0 3.77zm-.027-10.682c2.617 0 2.419 3.765.006 3.765h-1.882c.158-.719-.69-3.765 1.876-3.765zm-3.626 3.564c.05.938-.119 1.19.187 1.598h-1.904c.724-.305 1.345-.835 1.717-1.598zm-5.139-8.602c0-2.488 3.765-2.492 3.765 0v6.917c0 2.49-3.765 2.49-3.765 0V3.634zm.793 10.36c-1.26.35-2.046 1.287-2.354 2.385-.362-1.265-1.336-2.04-2.462-2.326 1.307-.33 2.117-1.286 2.434-2.404.352 1.257 1.288 2.037 2.382 2.344zm-2.543-6.917v1.918c-.313-.731-.852-1.36-1.632-1.727.987-.052 1.22.125 1.632-.19zm-1.398-3.449v1.89c-.506-.113-3.767.637-3.767-1.884.001-2.473 3.767-2.552 3.767-.006zM3.636 8.666h6.91c2.491 0 2.495 3.77 0 3.77h-6.91c-2.49 0-2.494-3.77 0-3.77z" fill="#000"/></svg>