<svg width="55" height="54" fill="none" xmlns="http://www.w3.org/2000/svg"><g clip-path="url(#clip0)"><path d="M24.494 42.986c4.44 0 8.523-1.527 11.78-4.06L46.849 49.5l3.401-3.401-10.575-10.574c2.536-3.26 4.063-7.341 4.063-11.782 0-10.61-8.633-19.243-19.244-19.243-10.61 0-19.244 8.633-19.244 19.243s8.633 19.243 19.244 19.243zm0-33.675c7.96 0 14.433 6.473 14.433 14.432 0 7.96-6.473 14.432-14.433 14.432s-14.433-6.472-14.433-14.432S16.534 9.311 24.494 9.311z" fill="#3F4449"/></g><defs><clipPath id="clip0"><path fill="#fff" transform="translate(.75)" d="M0 0h54v54H0z"/></clipPath></defs></svg>